# xmcd
#
# Track frame offsets: 
#        300
#        22166
#        58452
#        83829
#        111259
#        120370
#        137587
#        160945
#        187319
#
# Disc length: 2695 seconds
#
# Revision: 3
# Processed by: cddbd v1.5.2PL0 Copyright (c) Steve Scherf et al.
# Submitted via: ExactAudioCopy v1.0b1
#
DISCID=820a8309
DTITLE=Albert Collins - Live at the Fillmore West 
DYEAR=2005
DGENRE=Texas Blues
TTITLE0=Introduction instrumental
TTITLE1=How blue can you get
TTITLE2=Thaw out
TTITLE3=So tired
TTITLE4=Funky
TTITLE5=Deep freeze
TTITLE6=Baby what do you want me to do ?
TTITLE7=Mustang Sally
TTITLE8=Backstroke
EXTD=YEAR: 2000
EXTT0=
EXTT1=
EXTT2=
EXTT3=
EXTT4=
EXTT5=
EXTT6=
EXTT7=
EXTT8=
PLAYORDER=
